<svg width="24" height="22" viewBox="0 0 24 22" fill="none" xmlns="http://www.w3.org/2000/svg">
<g id="Group">
<path id="Vector" d="M5.25 6.1258C3.03675 6.1258 1.19775 5.64655 0 4.8418V6.1258C0 7.36855 2.3505 8.3758 5.25 8.3758C8.1495 8.3758 10.5 7.36855 10.5 6.1258V4.8418C9.30225 5.64655 7.46325 6.1258 5.25 6.1258Z" fill="#F6D662"/>
<path id="Vector_2" d="M5.25 4.62402C8.1495 4.62402 10.5 3.61666 10.5 2.37402C10.5 1.13138 8.1495 0.124023 5.25 0.124023C2.35051 0.124023 0 1.13138 0 2.37402C0 3.61666 2.35051 4.62402 5.25 4.62402Z" fill="#F6D662"/>
<path id="Vector_3" d="M18.75 7.62402C21.6495 7.62402 24 6.61666 24 5.37402C24 4.13138 21.6495 3.12402 18.75 3.12402C15.8505 3.12402 13.5 4.13138 13.5 5.37402C13.5 6.61666 15.8505 7.62402 18.75 7.62402Z" fill="#F6D662"/>
<path id="Vector_4" d="M12.75 15.8758C10.5368 15.8758 8.69775 15.3965 7.5 14.5918V15.8758C7.5 17.1185 9.8505 18.1258 12.75 18.1258C15.6495 18.1258 18 17.1185 18 15.8758V14.5918C16.8022 15.3965 14.9633 15.8758 12.75 15.8758Z" fill="#F6D662"/>
<path id="Vector_5" d="M12.75 19.6258C10.5368 19.6258 8.69775 19.1465 7.5 18.3418V19.6258C7.5 20.8685 9.8505 21.8758 12.75 21.8758C15.6495 21.8758 18 20.8685 18 19.6258V18.3418C16.8022 19.1465 14.9633 19.6258 12.75 19.6258Z" fill="#F6D662"/>
<path id="Vector_6" d="M18.7499 9.1258C17.9542 9.1258 17.2094 9.0613 16.5232 8.94505C18.0202 9.4633 19.0454 10.307 19.3799 11.3585C21.9817 11.2243 23.9999 10.277 23.9999 9.1258V7.8418C22.8022 8.64655 20.9632 9.1258 18.7499 9.1258Z" fill="#F6D662"/>
<path id="Vector_7" d="M7.44 9.7003C6.7635 9.8128 6.0315 9.8758 5.25 9.8758C3.03675 9.8758 1.19775 9.39655 0 8.5918V9.8758C0 11.1185 2.3505 12.1258 5.25 12.1258C5.50575 12.1258 5.7555 12.1153 6.00225 12.1003C6.01125 11.153 6.5325 10.3303 7.44 9.7003Z" fill="#F6D662"/>
<path id="Vector_8" d="M12.75 14.374C15.6495 14.374 18 13.3667 18 12.124C18 10.8814 15.6495 9.87402 12.75 9.87402C9.85051 9.87402 7.5 10.8814 7.5 12.124C7.5 13.3667 9.85051 14.374 12.75 14.374Z" fill="#F6D662"/>
<path id="Vector_9" d="M19.5 12.8555V15.1003C22.0433 14.9443 24 14.009 24 12.8758V11.5918C22.941 12.3035 21.378 12.7595 19.5 12.8555Z" fill="#F6D662"/>
<path id="Vector_10" d="M19.5 16.6055V18.8503C22.0433 18.6943 24 17.759 24 16.6258V15.3418C22.941 16.0535 21.378 16.5095 19.5 16.6055Z" fill="#F6D662"/>
<path id="Vector_11" d="M6 13.6055C5.75475 13.6175 5.50575 13.6258 5.25 13.6258C3.03675 13.6258 1.19775 13.1465 0 12.3418V13.6258C0 14.8685 2.3505 15.8758 5.25 15.8758C5.505 15.8758 5.75475 15.8653 6 15.8503V13.6055Z" fill="#F6D662"/>
<path id="Vector_12" d="M6 17.3555C5.75475 17.3675 5.50575 17.3758 5.25 17.3758C3.03675 17.3758 1.19775 16.8965 0 16.0918V17.3758C0 18.6185 2.3505 19.6258 5.25 19.6258C5.505 19.6258 5.75475 19.6153 6 19.6003V17.3555Z" fill="#F6D662"/>
</g>
</svg>
